<svg id="Layer_1" data-name="Layer 1" xmlns="http://www.w3.org/2000/svg" viewBox="0 0 817.7 573.18"><defs><style>.cls-1,.cls-2,.cls-3{fill:none;stroke:#fff;stroke-miterlimit:10;}.cls-2{opacity:0.98;}.cls-2,.cls-3{isolation:isolate;}.cls-3{font-size:15px;font-family:MyriadPro-Bold, Myriad Pro;font-weight:700;}.cls-4{letter-spacing:-0.03em;}.cls-5{letter-spacing:-0.02em;}</style></defs><title>iconswhite</title><path class="cls-1" d="M169,141.38c-2-2.7-3.3-2-3.3-2s-78.3,6.7-147,0c0,0-4.7,1-3.3,3.3s8.3,2.7,10,2.7l.3,6,12.7.3.7,1.7,2.3.7-.3,5.7-2-.7-.3,2H26.1l-.3,15,14-.3-3.7,75.7H50.6l5.3-76h73.3l4.3,75.7h15l-3-75.3h13.7v-15H146v-2.3l-2-.3v-4h2l.3-2h13.3V146C159.6,145.68,171,144,169,141.38Zm-81,20.3H59.3l-1-2h-2L56,154l2.3-.7,1.7-2,28,.3Zm39.6-2h-2l-1,2H96v-10l28-.3,1.7,2,2.3.7Z" transform="translate(-14.64 -11.4)"/><path class="cls-2" d="M38.5,23.1V80.6H51V69.1H170V80.6h13.5V23.1ZM172,68.6H49v-3H172Zm.5-28H49.5v-6h123Z" transform="translate(-14.64 -11.4)"/><rect class="cls-2" x="37.06" y="29.5" width="118.5" height="24.5"/><path class="cls-2" d="M125.4,40.9V51.7h-2.8V40.9h-2V51.7h-2.8V40.9H116V51.7h-2.8V40.9h-2V51.7h-2.8V40.9h-2.3v11h-2.8v-11h-2v11H98.5v-11H96.7v11H93.9v-11h-2v11H89.1v-11H87V51.7H84.2V40.9h-2V51.7H80V40.9H78.2V51.7H75.4V40.9h-2V51.7H70.6V40.9H68.3v11H65.5v-11h-2v11H61v-11H59.2v11H56.4v-11h-2v11H51.6V65.4H52v-11h2.8v11h2v-11h2.8v11h1.8v-11h2.8v11h2v-11H69v11H90v-11h2.8v11h2v-11h2.8v11h1.8v-11h2.8v11h2v-11H107v11h21.6V54.9h2.8V65.4h2.1V55.1h2.8V65.4h2V55.1h2.8V65.4h1.8V55.1h2.8V65.4h2V55.1h2.8V65.4h2.3V54.9h2.8V65.4h2V54.9h2.8V65.4h1.8V54.9H165V65.4h2V54.9h2.8V65.4h1.3V40.9ZM73.9,65.1H71.1v-11h2.8Zm4.7,0H75.8v-11h2.8Zm4.5,0H80.3v-11h2.8Zm4.8,0H85.1v-11h2.8Zm23.8,0H109v-11h2.8v11Zm4.8,0h-2.8v-11h2.8Zm4.5,0h-2.8v-11H121Zm4.7,0H123v-11h2.8v11Zm5-12.7H128v-11h2.8v11Zm4.9.2h-2.8v-11h2.8Zm4.8,0h-2.8v-11h2.8Zm4.5,0h-2.8v-11h2.8Zm4.7,0h-2.8v-11h2.8Zm5-.2h-2.8v-11h2.8Zm4.8,0h-2.8v-11h2.8Zm4.5,0h-2.8v-11h2.8Zm4.7,0h-2.8v-11h2.8Z" transform="translate(-14.64 -11.4)"/><rect class="cls-1" x="194.06" y="196.5" width="26.5" height="134.3"/><circle class="cls-1" cx="207.36" cy="209" r="6.1"/><circle class="cls-1" cx="207.36" cy="223.3" r="6.1"/><circle class="cls-1" cx="207.36" cy="237.3" r="6.1"/><text class="cls-3" transform="translate(202.91 252.29) rotate(90)"><tspan class="cls-4">A</tspan><tspan x="9.37" y="0">v </tspan><tspan class="cls-5" x="20.35" y="0">P</tspan><tspan x="28.8" y="0">aulista</tspan></text><polygon class="cls-1" points="23.96 332.7 30.96 327.4 38.76 327.4 55.96 334.4 59.46 328.4 59.76 315.4 47.46 290.2 51.46 287.4 68.76 315.9 70.26 285.4 76.26 284.2 80.46 320.2 95.96 295.4 99.46 298.4 91.46 322.9 95.96 327.4 116.76 319.2 118.46 321.7 97.46 335.4 95.96 346.7 92.76 363.7 92.26 384.7 89.76 408.2 85.26 408.7 87.76 390.2 86.76 384.2 85.96 372.4 83.76 366.9 88.96 357.7 87.96 352.2 78.76 347.7 73.76 343.2 73.26 340.7 69.96 336.2 62.96 338.7 69.96 340.4 73.46 347.9 74.46 353.7 78.26 356.9 78.46 362.7 81.46 371.2 82.26 376.4 83.76 388.9 80.76 395.9 79.76 409.4 57.46 408.9 64.96 361.9 55.76 358.9 41.96 346.9 23.96 332.7"/><path class="cls-1" d="M250.2,74.8h.1V72.3h-6v2.5h.1a6.47,6.47,0,0,0,0,11.6h-.1V89h6V86.5h-.1a6.45,6.45,0,0,0,3.6-5.8A6.32,6.32,0,0,0,250.2,74.8Z" transform="translate(-14.64 -11.4)"/><path class="cls-1" d="M266.2,74.8h.1V72.3h-6v2.5h.1a6.47,6.47,0,0,0,0,11.6h-.1V89h6V86.5h-.1a6.45,6.45,0,0,0,3.6-5.8A6.32,6.32,0,0,0,266.2,74.8Z" transform="translate(-14.64 -11.4)"/><path class="cls-1" d="M281.4,74.8h.1V72.3h-6v2.5h.1a6.47,6.47,0,0,0,0,11.6h-.1V89h6V86.5h-.1a6.55,6.55,0,0,0,0-11.7Z" transform="translate(-14.64 -11.4)"/><path class="cls-1" d="M268.1,61.4l-11.1.1s-5.5,3.6-18.5.6l-.1,3.4s-11.5.6-16.9,5.1l1.3,1.4s7.1-4.6,15.4-4.3l.1,2.5h5.4l2.3-1.3v2.9h2.4l.1-2.9,2.2,1.4h9.1l2.7-1.8-.1,3.5h2l-.1-3.3,1.6,1.7,9.4-.3,2.1-1.6v3.3h2.5l-.1-3.3,1.7,1.4,5.5-.1.1-8.5C287,61.4,283.1,65.5,268.1,61.4Z" transform="translate(-14.64 -11.4)"/><path class="cls-1" d="M218.8,73.5c-.4,1.1-17.4,40-17.4,40l2,.8L221,74.2Z" transform="translate(-14.64 -11.4)"/><rect class="cls-1" x="186.66" y="107.5" width="2.1" height="41.5"/><path class="cls-1" d="M334.1,74.8H334V72.3h6v2.5h-.1a6.47,6.47,0,0,1,0,11.6h.1V89h-6V86.5h.1a6.45,6.45,0,0,1-3.6-5.8A6.32,6.32,0,0,1,334.1,74.8Z" transform="translate(-14.64 -11.4)"/><path class="cls-1" d="M318.1,74.8H318V72.3h6v2.5h-.1a6.47,6.47,0,0,1,0,11.6h.1V89h-6V86.5h.1a6.45,6.45,0,0,1-3.6-5.8A6.32,6.32,0,0,1,318.1,74.8Z" transform="translate(-14.64 -11.4)"/><path class="cls-1" d="M302.9,74.8h-.1V72.3h6v2.5h-.1a6.47,6.47,0,0,1,0,11.6h.1V89h-6V86.5h.1a6.45,6.45,0,0,1-3.6-5.8A6.67,6.67,0,0,1,302.9,74.8Z" transform="translate(-14.64 -11.4)"/><path class="cls-1" d="M316.2,61.4l11.1.1s5.5,3.6,18.5.6l.1,3.4s11.5.6,16.9,5.1L361.5,72s-7.1-4.6-15.4-4.3l-.1,2.5h-5.4l-2.3-1.3v2.9h-2.4l-.1-2.9-2.2,1.4h-9.1l-2.7-1.8.1,3.5h-2l.1-3.3-1.6,1.7-9.4-.3-2.1-1.6v3.3h-2.5l.1-3.3L303,70l-5.5-.1-.1-8.5C297.3,61.4,301.2,65.5,316.2,61.4Z" transform="translate(-14.64 -11.4)"/><path class="cls-1" d="M365.5,73.5c.4,1.1,17.4,40,17.4,40l-2,.8L363.3,74.2Z" transform="translate(-14.64 -11.4)"/><rect class="cls-1" x="366.28" y="107.53" width="2.1" height="41.5"/><path class="cls-1" d="M71.9,475.1H72v-2.5H66v2.5h.1a6.47,6.47,0,0,0,0,11.6H66v2.5h6v-2.5h-.1a6.45,6.45,0,0,0,3.6-5.8A6.51,6.51,0,0,0,71.9,475.1Z" transform="translate(-14.64 -11.4)"/><path class="cls-1" d="M87.9,475.1H88v-2.5H82v2.5h.1a6.47,6.47,0,0,0,0,11.6H82v2.5h6v-2.5h-.1a6.45,6.45,0,0,0,3.6-5.8A6.51,6.51,0,0,0,87.9,475.1Z" transform="translate(-14.64 -11.4)"/><path class="cls-1" d="M103.1,475.1h.1v-2.5h-6v2.5h.1a6.47,6.47,0,0,0,0,11.6h-.1v2.5h6v-2.5h-.1a6.45,6.45,0,0,0,3.6-5.8A6.51,6.51,0,0,0,103.1,475.1Z" transform="translate(-14.64 -11.4)"/><path class="cls-1" d="M89.8,461.7l-11.1.1s-5.5,3.6-18.5.6l-.1,3.4s-11.5.6-16.9,5.1l1.3,1.4s7.1-4.6,15.4-4.3l.1,2.5h5.4l2.3-1.3v2.9h2.4l.1-2.9,2.2,1.4h9.1l2.7-1.8-.1,3.5h2L86,469l1.6,1.7,9.4-.3,2.1-1.6v3.3h2.5l-.1-3.3,1.7,1.4,5.5-.1.1-8.5C108.6,461.7,104.8,465.8,89.8,461.7Z" transform="translate(-14.64 -11.4)"/><path class="cls-1" d="M40.5,473.8c-.4,1.1-17.4,40-17.4,40l2,.8,17.6-40.1Z" transform="translate(-14.64 -11.4)"/><rect class="cls-1" x="8.36" y="507.8" width="2.1" height="41.5"/><path class="cls-1" d="M155.8,475.1h-.1v-2.5h6v2.5h-.1a6.47,6.47,0,0,1,0,11.6h.1v2.5h-6v-2.5h.1a6.45,6.45,0,0,1-3.6-5.8A6.17,6.17,0,0,1,155.8,475.1Z" transform="translate(-14.64 -11.4)"/><path class="cls-1" d="M139.8,475.1h-.1v-2.5h6v2.5h-.1a6.47,6.47,0,0,1,0,11.6h.1v2.5h-6v-2.5h.1a6.45,6.45,0,0,1-3.6-5.8A6.17,6.17,0,0,1,139.8,475.1Z" transform="translate(-14.64 -11.4)"/><path class="cls-1" d="M124.6,475.1h-.1v-2.5h6v2.5h-.1a6.47,6.47,0,0,1,0,11.6h.1v2.5h-6v-2.5h.1a6.45,6.45,0,0,1-3.6-5.8A6.17,6.17,0,0,1,124.6,475.1Z" transform="translate(-14.64 -11.4)"/><path class="cls-1" d="M137.9,461.7l11.1.1s5.5,3.6,18.5.6l.1,3.4s11.5.6,16.9,5.1l-1.3,1.4s-7.1-4.6-15.4-4.3l-.1,2.5h-5.4l-2.3-1.3v2.9h-2.4l-.1-2.9-2.2,1.4h-9.1l-2.7-1.8.1,3.5h-2l.1-3.3-1.6,1.7-9.4-.3-2.1-1.6v3.3h-2.5l.1-3.3-1.7,1.4-5.5-.1-.1-8.5C119,461.7,122.9,465.8,137.9,461.7Z" transform="translate(-14.64 -11.4)"/><path class="cls-1" d="M187.1,473.8c.4,1.1,17.4,40,17.4,40l-2,.8-17.6-40.1Z" transform="translate(-14.64 -11.4)"/><rect class="cls-1" x="187.9" y="507.73" width="2.1" height="41.5"/><path class="cls-2" d="M187,369.1v57.5h12.5V415.1h119v11.5H332V369.1Zm133.5,45.5h-123v-3h123Zm.5-28H198v-6H321Z" transform="translate(-14.64 -11.4)"/><rect class="cls-2" x="185.56" y="375.4" width="118.5" height="24.5"/><path class="cls-2" d="M273.8,386.8v10.8H271V386.8h-2v10.8h-2.8V386.8h-1.8v10.8h-2.8V386.8h-2v10.8h-2.8V386.8h-2.3v11h-2.8v-11h-2v11h-2.8v-11h-1.8v11h-2.8v-11h-2v11h-2.8v-11H236v10.8h-2.8V386.8h-2v10.8h-2.8V386.8h-1.8v10.8H224V386.8h-2v10.8h-2.8V386.8H217v11h-2.8v-11h-2v11h-2.8v-11h-1.8v11H205v-11h-2v11h-2.8v13.5h.4v-11h2.8v11h2v-11h2.8v11H210v-11h2.8v11h2v-11h2.8v11h21.1v-11h2.8v11h2v-11h2.8v11h1.8v-11h2.8v11h2v-11h2.8v11h21.6V400.8h2.8v10.5h2.1V401H285v10.3h2V401h2.8v10.3h1.8V401h2.8v10.3h2V401h2.8v10.3h2.3V400.8h2.8v10.5h2V400.8h2.8v10.5h1.8V400.8h2.8v10.5h2V400.8h2.8v10.5h1.3V386.8Zm-51.5,24.3h-2.8v-11h2.8Zm4.8,0h-2.8v-11h2.8Zm4.5,0h-2.8v-11h2.8Zm4.7,0h-2.8v-11h2.8Zm23.9,0h-2.8v-11h2.8Zm4.8,0h-2.8v-11H265Zm4.5,0h-2.8v-11h2.8Zm4.7,0h-2.8v-11h2.8Zm5-12.8h-2.8v-11h2.8Zm4.9.3h-2.8v-11h2.8Zm4.7,0H286v-11h2.8Zm4.5,0h-2.8v-11h2.8Zm4.8,0h-2.8v-11h2.8Zm5-.3h-2.8v-11h2.8Zm4.7,0H305v-11h2.8Zm4.5,0h-2.8v-11h2.8Zm4.8,0h-2.8v-11h2.8Z" transform="translate(-14.64 -11.4)"/><path class="cls-1" d="M481.2,453.2c-2-2.7-3.3-2-3.3-2s-78.3,6.7-147,0c0,0-4.7,1-3.3,3.3s8.3,2.7,10,2.7l.3,6,12.7.3.7,1.7,2.3.7-.3,5.7-2-.7-.3,2H338.3l-.3,15,14-.3-3.7,75.7H363l5.3-76h73.3l4.3,75.7h15l-3-75.3h13.7v-15H458.3v-2.3l-2-.3v-4h2l.3-2h13.3v-6.3C471.8,457.6,483.2,455.9,481.2,453.2Zm-81,20.4H371.5l-1-2h-2l-.3-5.7,2.3-.7,1.7-2,28,.3Zm39.6-2h-2l-1,2H408.1v-10l28-.3,1.7,2,2.3.7Z" transform="translate(-14.64 -11.4)"/><rect class="cls-1" x="397.06" y="0.5" width="26.5" height="134.3"/><circle class="cls-1" cx="410.26" cy="13" r="6.1"/><circle class="cls-1" cx="410.26" cy="27.3" r="6.1"/><circle class="cls-1" cx="410.26" cy="41.3" r="6.1"/><text class="cls-3" transform="translate(405.91 56.3) rotate(90)"><tspan class="cls-4">A</tspan><tspan x="9.38" y="0">v </tspan><tspan class="cls-5" x="20.35" y="0">P</tspan><tspan x="28.8" y="0">aulista</tspan></text><polygon class="cls-1" points="445.86 146.38 452.86 141.18 460.66 141.18 477.86 148.18 481.36 142.18 481.66 129.18 469.36 103.88 473.36 101.18 490.66 129.68 492.16 99.18 498.16 97.88 502.36 133.88 517.86 109.18 521.36 112.18 513.36 136.68 517.86 141.18 538.66 132.88 540.36 135.38 519.36 149.18 517.86 160.38 514.66 177.38 514.16 198.38 511.66 221.88 507.16 222.38 509.66 203.88 508.66 197.88 507.86 186.18 505.66 180.68 510.86 171.38 509.86 165.88 500.66 161.38 495.66 156.88 495.16 154.38 491.86 149.88 484.86 152.38 491.86 154.18 495.36 161.68 496.36 167.38 500.16 170.68 500.36 176.38 503.36 184.88 504.16 190.18 505.66 202.68 502.66 209.68 501.66 223.18 479.36 222.68 486.86 175.68 477.66 172.68 463.86 160.68 445.86 146.38"/><polygon class="cls-1" points="269.66 232.88 276.66 227.68 284.36 227.68 301.66 234.68 305.16 228.68 305.36 215.68 293.16 190.38 297.16 187.68 314.36 216.18 315.86 185.68 321.86 184.38 326.16 220.38 341.66 195.68 345.16 198.68 337.16 223.18 341.66 227.68 362.36 219.38 364.16 221.88 343.16 235.68 341.66 246.88 338.36 263.88 337.86 284.88 335.36 308.38 330.86 308.88 333.36 290.38 332.36 284.38 331.66 272.68 329.36 267.18 334.66 257.88 333.66 252.38 324.36 247.88 319.36 243.38 318.86 240.88 315.66 236.38 308.66 238.88 315.66 240.68 319.16 248.18 320.16 253.88 323.86 257.18 324.16 262.88 327.16 271.38 327.86 276.68 329.36 289.18 326.36 296.18 325.36 309.68 303.16 309.18 310.66 262.18 301.36 259.18 287.66 247.18 269.66 232.88"/><path class="cls-1" d="M440.6,292.8h.1v-2.5h-6v2.5h.1a6.47,6.47,0,0,0,0,11.6h-.1v2.5h6v-2.5h-.1a6.45,6.45,0,0,0,3.6-5.8A6.27,6.27,0,0,0,440.6,292.8Z" transform="translate(-14.64 -11.4)"/><path class="cls-1" d="M456.6,292.8h.1v-2.5h-6v2.5h.1a6.47,6.47,0,0,0,0,11.6h-.1v2.5h6v-2.5h-.1a6.45,6.45,0,0,0,3.6-5.8A6.27,6.27,0,0,0,456.6,292.8Z" transform="translate(-14.64 -11.4)"/><path class="cls-1" d="M471.8,292.8h.1v-2.5h-6v2.5h.1a6.47,6.47,0,0,0,0,11.6h-.1v2.5h6v-2.5h-.1a6.45,6.45,0,0,0,3.6-5.8A6.63,6.63,0,0,0,471.8,292.8Z" transform="translate(-14.64 -11.4)"/><path class="cls-1" d="M458.5,279.4l-11.1.1s-5.5,3.6-18.5.6l-.1,3.4s-11.5.6-16.9,5.1l1.3,1.4s7.1-4.6,15.4-4.3l.1,2.5h5.4l2.3-1.3v2.9h2.4l.1-2.9,2.2,1.4h9.1l2.7-1.8-.1,3.5h2l-.1-3.3,1.6,1.7,9.4-.3,2.1-1.6v3.3h2.5l-.1-3.3,1.7,1.4,5.5-.1.1-8.5C477.4,279.4,473.5,283.5,458.5,279.4Z" transform="translate(-14.64 -11.4)"/><path class="cls-1" d="M409.2,291.5c-.4,1.1-17.4,40-17.4,40l2,.8,17.6-40.1Z" transform="translate(-14.64 -11.4)"/><rect class="cls-1" x="377.06" y="325.5" width="2.1" height="41.5"/><path class="cls-1" d="M524.5,292.8h-.1v-2.5h6v2.5h-.1a6.47,6.47,0,0,1,0,11.6h.1v2.5h-6v-2.5h.1a6.45,6.45,0,0,1-3.6-5.8A6.27,6.27,0,0,1,524.5,292.8Z" transform="translate(-14.64 -11.4)"/><path class="cls-1" d="M508.5,292.8h-.1v-2.5h6v2.5h-.1a6.47,6.47,0,0,1,0,11.6h.1v2.5h-6v-2.5h.1a6.45,6.45,0,0,1-3.6-5.8A6.27,6.27,0,0,1,508.5,292.8Z" transform="translate(-14.64 -11.4)"/><path class="cls-1" d="M493.3,292.8h-.1v-2.5h6v2.5H499a6.47,6.47,0,0,1,0,11.6h.1v2.5h-6v-2.5h.1a6.45,6.45,0,0,1-3.6-5.8A6.92,6.92,0,0,1,493.3,292.8Z" transform="translate(-14.64 -11.4)"/><path class="cls-1" d="M506.6,279.4l11.1.1s5.5,3.6,18.5.6l.1,3.4s11.5.6,16.9,5.1l-1.3,1.4s-7.1-4.6-15.4-4.3l-.1,2.5H531l-2.3-1.3v2.9h-2.4l-.1-2.9-2.2,1.4h-9.1l-2.7-1.8.1,3.5h-2l.1-3.3-1.6,1.7-9.4-.3-2.1-1.6v3.3H495l.1-3.3-1.7,1.4-5.5-.1-.1-8.5C487.7,279.4,491.6,283.5,506.6,279.4Z" transform="translate(-14.64 -11.4)"/><path class="cls-1" d="M555.9,291.5c.4,1.1,17.4,40,17.4,40l-2,.8-17.6-40.1Z" transform="translate(-14.64 -11.4)"/><rect class="cls-1" x="556.67" y="325.47" width="2.1" height="41.5"/><path class="cls-1" d="M754.1,154.8c-2-2.7-3.3-2-3.3-2s-78.3,6.7-147,0c0,0-4.7,1-3.3,3.3s8.3,2.7,10,2.7l.3,6,12.7.3.7,1.7,2.3.7-.3,5.7-2-.7-.3,2H611.2l-.3,15,14-.3-3.7,75.7h14.7l5.3-76h73.3l4.3,75.7h15l-3-75.3h13.7v-15H731.2V172l-2-.3v-4h2l.3-2h13.3v-6.3C744.8,159.1,756.1,157.4,754.1,154.8Zm-81,20.3H644.4l-1-2h-2l-.3-5.7,2.3-.7,1.7-2,28,.3Zm39.7-2h-2l-1,2H681.1v-10l28-.3,1.7,2,2.3.7Z" transform="translate(-14.64 -11.4)"/><path class="cls-2" d="M518,526.58v57.5h12.5v-11.5h119v11.5H663v-57.5Zm133.5,45.5h-123v-3h123Zm.5-28H529v-6H652Z" transform="translate(-14.64 -11.4)"/><rect class="cls-2" x="516.56" y="532.88" width="118.5" height="24.5"/><path class="cls-2" d="M604.8,544.28v10.8H602v-10.8h-2v10.8h-2.8v-10.8h-1.8v10.8h-2.8v-10.8h-2v10.8h-2.8v-10.8h-2.3v11h-2.8v-11h-2v11h-2.8v-11h-1.8v11h-2.8v-11h-2v11h-2.8v-11H567v10.8h-2.8v-10.8h-2v10.8h-2.8v-10.8h-1.8v10.8H555v-10.8h-2v10.8h-2.8v-10.8H548v11h-2.8v-11h-2v11h-2.8v-11h-1.8v11H536v-11h-2v11h-2.8v13.5h.4v-11h2.8v11h2v-11h2.8v11H541v-11h2.8v11h2v-11h2.8v11h21.1v-11h2.8v11h2v-11h2.8v11h1.8v-11h2.8v11h2v-11h2.8v11h21.6v-10.5h2.8v10.5h2.1v-10.3H616v10.3h2v-10.3h2.8v10.3h1.8v-10.3h2.8v10.3h2v-10.3h2.8v10.3h2.3v-10.5h2.8v10.5h2v-10.5h2.8v10.5h1.8v-10.5h2.8v10.5h2v-10.5h2.8v10.5h1.3v-24.5Zm-51.5,24.3h-2.8v-11h2.8Zm4.8,0h-2.8v-11h2.8Zm4.5,0h-2.8v-11h2.8Zm4.7,0h-2.8v-11h2.8Zm23.9,0h-2.8v-11h2.8Zm4.8,0h-2.8v-11H596Zm4.5,0h-2.8v-11h2.8Zm4.7,0h-2.8v-11h2.8Zm5-12.8h-2.8v-11h2.8Zm4.9.3h-2.8v-11h2.8Zm4.7,0H617v-11h2.8Zm4.5,0h-2.8v-11h2.8Zm4.8,0h-2.8v-11h2.8Zm5-.3h-2.8v-11h2.8Zm4.7,0H636v-11h2.8Zm4.5,0h-2.8v-11h2.8Zm4.8,0h-2.8v-11h2.8Z" transform="translate(-14.64 -11.4)"/><rect class="cls-1" x="766.56" y="221.5" width="26.5" height="134.3"/><circle class="cls-1" cx="779.76" cy="234" r="6.1"/><circle class="cls-1" cx="779.76" cy="248.3" r="6.1"/><circle class="cls-1" cx="779.76" cy="262.3" r="6.1"/><text class="cls-3" transform="translate(775.38 277.29) rotate(90)"><tspan class="cls-4">A</tspan><tspan x="9.37" y="0">v </tspan><tspan class="cls-5" x="20.35" y="0">P</tspan><tspan x="28.8" y="0">aulista</tspan></text><polygon class="cls-1" points="588.16 346.88 595.16 341.58 602.86 341.58 620.16 348.58 623.66 342.58 623.86 329.58 611.66 304.38 615.66 301.58 632.86 330.08 634.36 299.58 640.36 298.38 644.66 334.38 660.16 309.58 663.66 312.58 655.66 337.08 660.16 341.58 680.86 333.38 682.66 335.88 661.66 349.58 660.16 360.88 656.86 377.88 656.36 398.88 653.86 422.38 649.36 422.88 651.86 404.38 650.86 398.38 650.16 386.58 647.86 381.08 653.16 371.88 652.16 366.38 642.86 361.88 637.86 357.38 637.36 354.88 634.16 350.38 627.16 352.88 634.16 354.58 637.66 362.08 638.66 367.88 642.36 371.08 642.66 376.88 645.66 385.38 646.36 390.58 647.86 403.08 644.86 410.08 643.86 423.58 621.66 423.08 629.16 376.08 619.86 373.08 606.16 361.08 588.16 346.88"/><path class="cls-1" d="M662.3,41.68h.1v-2.5h-6v2.5h.1a6.47,6.47,0,0,0,0,11.6h-.1v2.5h6v-2.5h-.1a6.45,6.45,0,0,0,3.6-5.8A6.63,6.63,0,0,0,662.3,41.68Z" transform="translate(-14.64 -11.4)"/><path class="cls-1" d="M678.3,41.68h.1v-2.5h-6v2.5h.1a6.47,6.47,0,0,0,0,11.6h-.1v2.5h6v-2.5h-.1a6.45,6.45,0,0,0,3.6-5.8A6.63,6.63,0,0,0,678.3,41.68Z" transform="translate(-14.64 -11.4)"/><path class="cls-1" d="M693.5,41.68h.1v-2.5h-6v2.5h.1a6.47,6.47,0,0,0,0,11.6h-.1v2.5h6v-2.5h-.1a6.45,6.45,0,0,0,3.6-5.8A6.63,6.63,0,0,0,693.5,41.68Z" transform="translate(-14.64 -11.4)"/><path class="cls-1" d="M680.2,28.28l-11.1.1s-5.5,3.6-18.5.6l-.1,3.4s-11.5.6-16.9,5.1l1.3,1.4s7.1-4.6,15.4-4.3l.1,2.5h5.4l2.3-1.3v2.9h2.4l.1-2.9,2.2,1.4h9.1l2.7-1.8-.1,3.5h2l-.1-3.3,1.6,1.7,9.4-.3,2.1-1.6v3.3H692l-.3-3.1,1.7,1.4,5.5-.1.1-8.5C699,28.28,695.2,32.38,680.2,28.28Z" transform="translate(-14.64 -11.4)"/><path class="cls-1" d="M630.9,40.38c-.4,1.1-17.4,40-17.4,40l2,.8,17.6-40.1Z" transform="translate(-14.64 -11.4)"/><rect class="cls-1" x="598.76" y="74.38" width="2.1" height="41.5"/><path class="cls-1" d="M746.1,41.68H746v-2.5h6v2.5h-.1a6.47,6.47,0,0,1,0,11.6h.1v2.5h-6v-2.5h.1a6.45,6.45,0,0,1-3.6-5.8A6.63,6.63,0,0,1,746.1,41.68Z" transform="translate(-14.64 -11.4)"/><path class="cls-1" d="M730.1,41.68H730v-2.5h6v2.5h-.1a6.47,6.47,0,0,1,0,11.6h.1v2.5h-6v-2.5h.1a6.45,6.45,0,0,1-3.6-5.8A6.63,6.63,0,0,1,730.1,41.68Z" transform="translate(-14.64 -11.4)"/><path class="cls-1" d="M715,41.68h-.1v-2.5h6v2.5h-.2a6.47,6.47,0,0,1,0,11.6h.1v2.5h-6v-2.5h.1a6.45,6.45,0,0,1-3.6-5.8A6.54,6.54,0,0,1,715,41.68Z" transform="translate(-14.64 -11.4)"/><path class="cls-1" d="M728.3,28.28l11.1.1s5.5,3.6,18.5.6l.1,3.4s11.5.6,16.9,5.1l-1.2,1.3s-7.1-4.6-15.4-4.3l-.1,2.5h-5.4l-2.3-1.3v3h-2.4l-.1-2.9-2.2,1.4h-9.1l-2.7-1.8.1,3.5h-2l.1-3.3-1.5,1.7-9.4-.3-2.1-1.6v3.3h-2.5l.1-3.3-1.7,1.4-5.5-.1-.1-8.5C709.4,28.28,713.3,32.38,728.3,28.28Z" transform="translate(-14.64 -11.4)"/><path class="cls-1" d="M777.5,40.38c.4,1.1,17.4,40,17.4,40l-2,.8-17.6-40.1Z" transform="translate(-14.64 -11.4)"/><rect class="cls-1" x="778.29" y="74.39" width="2.1" height="41.5"/><path class="cls-1" d="M831.6,458.2c-2-2.7-3.3-2-3.3-2s-78.3,6.7-147,0c0,0-4.7,1-3.3,3.3s8.3,2.7,10,2.7l.3,6,12.7.3.7,1.7,2.3.7-.3,5.7-2-.7-.3,2H688.7l-.3,15,14-.3-3.7,75.7h14.7l5.3-76H792l4.3,75.7h15l-3-75.3H822v-15H808.7v-2.3l-2-.3v-4h2l.3-2h13.3v-6.3C822.3,462.6,833.6,460.9,831.6,458.2Zm-81,20.4H721.9l-1-2h-2l-.3-5.7,2.3-.7,1.7-2,28,.3Zm39.7-2h-2l-1,2H758.6v-10l28-.3,1.7,2,2.3.7Z" transform="translate(-14.64 -11.4)"/></svg>