<svg width="170" height="170" viewBox="0 0 170 170" fill="none" xmlns="http://www.w3.org/2000/svg">
<path d="M36.9416 33.6166L40.65 15.0666C41.4054 11.287 43.4476 7.88602 46.4287 5.44279C49.4098 2.99956 53.1456 1.6651 57 1.66663H113C116.854 1.6651 120.59 2.99956 123.571 5.44279C126.552 7.88602 128.595 11.287 129.35 15.0666L133.058 33.6166C133.64 36.5232 135.036 39.2049 137.082 41.3498C139.128 43.4948 141.741 45.0148 144.617 45.7333C151.392 47.4281 157.406 51.3389 161.703 56.8441C166 62.3493 168.334 69.1329 168.333 76.1166V135C168.333 143.841 164.821 152.319 158.57 158.57C152.319 164.821 143.841 168.333 135 168.333H35C26.1594 168.333 17.6809 164.821 11.4297 158.57C5.17852 152.319 1.66663 143.841 1.66663 135V76.1166C1.66599 69.1329 3.99976 62.3493 8.29699 56.8441C12.5942 51.3389 18.6083 47.4281 25.3833 45.7333C28.2592 45.0148 30.8721 43.4948 32.9182 41.3498C34.9643 39.2049 36.3595 36.5232 36.9416 33.6166V33.6166Z" stroke="black" stroke-opacity="0.5" stroke-width="2" stroke-linecap="round" stroke-linejoin="round"/>
<path d="M84.9998 135C103.409 135 118.333 120.076 118.333 101.667C118.333 83.2571 103.409 68.3333 84.9998 68.3333C66.5903 68.3333 51.6665 83.2571 51.6665 101.667C51.6665 120.076 66.5903 135 84.9998 135Z" stroke="black" stroke-opacity="0.5" stroke-width="2" stroke-linecap="round" stroke-linejoin="round"/>
<path d="M76.6665 35H93.3332" stroke="black" stroke-opacity="0.5" stroke-width="2" stroke-linecap="round" stroke-linejoin="round"/>
</svg>
